<?xml version="1.0" encoding="iso-8859-1"?>
<!-- Generator: Adobe Illustrator 21.0.0, SVG Export Plug-In . SVG Version: 6.00 Build 0)  -->
<svg version="1.1" id="Capa_1" xmlns="http://www.w3.org/2000/svg" xmlns:xlink="http://www.w3.org/1999/xlink" x="0px" y="0px"
	 viewBox="0 0 511.382 511.382" style="enable-background:new 0 0 511.382 511.382;" xml:space="preserve">
<g>
	<path style="fill:#3D324C;" d="M423.724,130.427V448.22c0,4.875-3.952,8.828-8.828,8.828H264.828c-4.875,0-8.828,3.952-8.828,8.828
		v17.655c0,4.875-3.952,8.828-8.828,8.828h-70.621c-4.875,0-8.828-3.952-8.828-8.828v-17.655c0-4.875-3.952-8.828-8.828-8.828H8.828
		c-4.875,0-8.828-3.952-8.828-8.828V130.427c0-4.875,3.952-8.828,8.828-8.828H35.31L423.724,130.427z"/>
	<g>
		<path style="fill:#9FC9D3;" d="M211.862,112.772v317.793c-2.913-0.706-5.826-1.412-8.828-2.119
			c-57.732-12.8-133.738-15.007-159.073-15.448c-4.823-0.058-8.69-4.005-8.651-8.828V104.032c-0.017-2.362,0.92-4.63,2.598-6.292
			c1.678-1.662,3.956-2.576,6.318-2.535c53.291,0.484,106.434,5.683,158.808,15.537
			C206.036,111.359,208.949,112.066,211.862,112.772z"/>
		<path style="fill:#9FC9D3;" d="M388.414,104.032V404.17c0.039,4.823-3.828,8.769-8.651,8.828
			c-25.335,0.441-101.341,2.648-159.073,15.448c-3.001,0.706-5.914,1.412-8.828,2.119V112.772c2.913-0.706,5.826-1.412,8.828-2.03
			c52.374-9.854,105.518-15.053,158.808-15.537c2.361-0.04,4.639,0.874,6.318,2.535C387.494,99.402,388.431,101.671,388.414,104.032
			z"/>
	</g>
	<path style="fill:#35495E;" d="M355.796,177.257l-29.705,29.352c-10.093,9.308-23.836,13.587-37.429,11.652l-21.892-2.913
		l69.429-66.516L355.796,177.257z"/>
	<path style="fill:#D1D4D1;" d="M359.724,80.551c-55.261,66.56-47.404,115.023-47.404,115.023s55.172,35.134,136.474-46.168
		c30.455-30.455,43.432-88.452,62.499-130.207l0.088-0.088C511.382,19.111,414.897,14.079,359.724,80.551z"/>
	<path style="fill:#BDC3C7;" d="M511.294,19.199c-19.068,41.754-32.044,99.752-62.499,130.207
		c-81.302,81.302-136.474,46.168-136.474,46.168C387.443,90.879,507.586,21.318,511.294,19.199z"/>
	<path style="fill:#7D6599;" d="M220.69,110.741v317.705c-3.001,0.706-5.914,1.412-8.828,2.119
		c-2.913-0.706-5.826-1.412-8.828-2.119V110.741c3.001,0.618,5.914,1.324,8.828,2.03
		C214.775,112.066,217.688,111.359,220.69,110.741z"/>
</g>
<g>
</g>
<g>
</g>
<g>
</g>
<g>
</g>
<g>
</g>
<g>
</g>
<g>
</g>
<g>
</g>
<g>
</g>
<g>
</g>
<g>
</g>
<g>
</g>
<g>
</g>
<g>
</g>
<g>
</g>
</svg>
